# xmcd
#
# Track frame offsets:
#	150
#	5824
#	27537
#	29343
#	55514
#	73722
#	86979
#	114932
#	131352
#	153631
#	155462
#
# Disc length: 2470 seconds
#
# Revision: 1
# Processed by: cddbd v1.5.2PL0 Copyright (c) Steve Scherf et al.
# Submitted via: Jack! The Knife
#
DISCID=8d09a40b
DTITLE=Candlemass - Tales Of Creation
DYEAR=1986
DGENRE=Heavy Metal
TTITLE0=The Prophecy
TTITLE1=Dark Reflections
TTITLE2=Voices In The Wind
TTITLE3=Under The Oak
TTITLE4=Tears
TTITLE5=Into The Unfathomed Tower
TTITLE6=The Edge Of Heaven
TTITLE7=Somewhere In Nowhere
TTITLE8=Through The Infinitive Halls Of Death
TTITLE9=Dawn
TTITLE10=A Tale Of Creation
EXTD=Metal
EXTT0=
EXTT1=
EXTT2=
EXTT3=
EXTT4=
EXTT5=
EXTT6=
EXTT7=
EXTT8=
EXTT9=
EXTT10=
PLAYORDER=
